/* XPM */
static char *b71de23de2c24c4d9469a4cad0006a53WKYjT3sK5TN4yGqs[] = {
/* columns rows colors chars-per-pixel */
"64 64 17 1 ",
"  c None",
". c #5A003E",
"X c #1D434B",
"o c #801479",
"O c #A11C9A",
"+ c #B020A8",
"@ c #E11DA3",
"# c #C324BA",
"$ c #FB27B8",
"% c #FF34BF",
"& c #F029E5",
"* c #F02BE5",
"= c #FF66CF",
"- c #FF77D4",
"; c #5FCDE4",
": c #7CE8FF",
"> c #A3EFFF",
/* pixels */
"                                                                ",
"                                                                ",
"                                                                ",
"                                                                ",
"                                                                ",
"                                                                ",
"                                                                ",
"                                                                ",
"                                                                ",
"                                                                ",
"                                                                ",
"                                                                ",
"                                                                ",
"                                                                ",
"                                                                ",
"                                                                ",
"                                                                ",
"                            .........                           ",
"                         ...====&&&&&...                        ",
"                       ..===$$$$#####&&&..                      ",
"                      .&&$$$$$$$########&&.                     ",
"                    ..&###$##$$$$#########&..                   ",
"                 XX.%&#####$$$$$#$------###&&.                  ",
"               XX:.%@@######$$$$$--&&&&&-####&.                 ",
"              X>;:.%@@#######$$$-------&&-###&.                 ",
"             X>;:.%@@$$#######$------------###=.                ",
"            X>;;:.+@@$$$#######---&&-------$$$=.                ",
"           X>;;X.+OO@#$$$######-&&---------$$$$=.               ",
"           X>;:X.+OOO$$$$$#####-***&-------$$$$=.               ",
"          X>;;:X.+OO##$$$$$####-&***&&&----$$$$=.               ",
"          X>;;:X%OOO###$##$$$###-*&*&&&&&-####$$=.              ",
"          X>;;:X%@@O####$$$$$$$##-&*&&&&-#######&.              ",
"          X>;;;:X@O@O#$$$$$$#$$$$$------########&.              ",
"          X>;;;:X@@@@$$$$$$#$$$$$$$$$###########&.              ",
"           X>;;;:X@@@$$$$$$###$$$$$#$$$$$#######&.              ",
"           X>;;;;:X@@@$$$$#####$$##$$$$###$$$###&.              ",
"            X>;;;;:X@@$$$$###########$$$$$$$$$$$=.              ",
"            X>;;;;;:X@$$$$$$###########$$$$$###&.X              ",
"             X>;;;;;:XX$$$$$$$#################&.:X             ",
"              X>;;;;;::XX$$$$$$$$##############&X:X             ",
"               X>;;;;;;::XX$$$$$$$############&X:;;X            ",
"                X>;;;;;;;::XX$$###$$$$$#######&X:;;X            ",
"                 X>>;;;;;;;::XX$$$$$$$$###$$$=X:;;X             ",
"                  XX>>;;;;;;;::XXXX$$$#$$$$$$X:;;;X             ",
"                   .XX>>;;;;;;;::::XXXXXXXXXX:;;;X              ",
"                    ..XX>>;;;;;;;;;;:::::::::;;;X               ",
"                      .oXX>>>;;;;;;;;;;;;;;;;;;X                ",
"                       ..oXXX>>>>;;;;;;;;;;>>XX                 ",
"                         ...oXXXX>>>>>>>>>>XX                   ",
"                            .....XXXXXXXXXX                     ",
"                                                                ",
"                                                                ",
"                                                                ",
"                                                                ",
"                                                                ",
"                                                                ",
"                                                                ",
"                                                                ",
"                                                                ",
"                                                                ",
"                                                                ",
"                                                                ",
"                                                                ",
"                                                                "
};
