/* XPM */
static char *e8a820aea4b14773fc07a9bc20f9e664HBGckxGaRXcIvFGr[] = {
/* columns rows colors chars-per-pixel */
"64 64 159 2 ",
"   c None",
".  c #3F0B0B",
"X  c #3E1215",
"o  c #3B1D28",
"O  c #353434",
"+  c #410D0D",
"@  c #43100F",
"#  c #410F11",
"$  c #451414",
"%  c #491616",
"&  c #4B1916",
"*  c #45191A",
"=  c #4B1C1B",
"-  c #471817",
";  c #501C1C",
":  c #4D221F",
">  c #4B1F22",
",  c #4E2222",
"<  c #4F2925",
"1  c #522525",
"2  c #542C26",
"3  c #5C2A25",
"4  c #562C2A",
"5  c #5F2E28",
"6  c #412834",
"7  c #4D3131",
"8  c #553237",
"9  c #5C3433",
"0  c #5A3C37",
"q  c #553538",
"w  c #5E3A3B",
"e  c #603636",
"r  c #603937",
"t  c #6C3B33",
"y  c #603B3A",
"u  c #5F473F",
"i  c #754435",
"p  c #79493E",
"a  c #3D3D42",
"s  c #37344C",
"d  c #2E337E",
"f  c #5F3D41",
"g  c #3D4A48",
"h  c #2E4266",
"j  c #2D456A",
"k  c #5F4841",
"l  c #574544",
"z  c #594456",
"x  c #5B5758",
"c  c #624244",
"v  c #6A4444",
"b  c #624D44",
"n  c #6D4A49",
"m  c #6C4C41",
"M  c #7D4D42",
"N  c #724F4F",
"B  c #655349",
"V  c #765454",
"C  c #7B5C5C",
"Z  c #6C6459",
"A  c #61566D",
"S  c #7A6563",
"D  c #7E6A67",
"F  c #727164",
"G  c #A52A24",
"H  c #B83029",
"J  c #EF4136",
"K  c #815245",
"L  c #885743",
"P  c #885844",
"I  c #91614A",
"U  c #926353",
"Y  c #816362",
"T  c #866A69",
"R  c #896E6E",
"E  c #856867",
"W  c #9D7160",
"Q  c #8B7171",
"!  c #947C7C",
"~  c #907777",
"^  c #A67A67",
"/  c #7C8576",
"(  c #7E8978",
")  c #CB8633",
"_  c #CF8A34",
"`  c #8D827E",
"'  c #818F7E",
"]  c #81907E",
"[  c #BA8F78",
"{  c #BE927C",
"}  c #B68768",
"|  c #DBB848",
" . c #DFBC55",
".. c #C3916D",
"X. c #C8997A",
"o. c #2B398F",
"O. c #374492",
"+. c #1D70B4",
"@. c #45519B",
"#. c #6E7597",
"$. c #70789B",
"%. c #62A69C",
"&. c #6DD8CB",
"*. c #9B8787",
"=. c #9E8B8A",
"-. c #968785",
";. c #849583",
":. c #97908D",
">. c #98928E",
",. c #999592",
"<. c #9E9C99",
"1. c #9D9A96",
"2. c #A18E8E",
"3. c #AC9D9C",
"4. c #A49593",
"5. c #A3A29F",
"6. c #A4A5A2",
"7. c #A8ACA8",
"8. c #BAADAD",
"9. c #B4A8A7",
"0. c #ADB2AE",
"q. c #A8ADBF",
"w. c #AFB6B2",
"e. c #B0B7B3",
"r. c #BDB4B3",
"t. c #B5BCB8",
"y. c #CDA48A",
"u. c #E1AF84",
"i. c #E3B285",
"p. c #EAB98C",
"a. c #E3BB9B",
"s. c #E9BF9D",
"d. c #C4BCBB",
"f. c #F1CC89",
"g. c #F4C392",
"h. c #F6C89A",
"j. c #ECC5A5",
"k. c #F0CAA9",
"l. c #F9CCA1",
"z. c #FAD0A7",
"x. c #FDD4AD",
"c. c #FDD5B2",
"v. c #FFD9B6",
"b. c #CAC5C5",
"n. c #C5CAC7",
"m. c #CEC9C8",
"M. c #C2C1C1",
"N. c #D1CECD",
"B. c #D3D0CF",
"V. c #CFD4D1",
"C. c #D5D4D3",
"Z. c #D8D8D7",
"A. c #DBDCDA",
"S. c #D8D7D6",
"D. c #DFE0DF",
"F. c #DFE1E0",
"G. c #E1E3E2",
"H. c #E0E2E1",
"J. c #E1E3E2",
/* pixels */
"                                                                                                                                ",
"                                                                                                                                ",
"                                                                                                                                ",
"                                                                                                                                ",
"                                                                                                                                ",
"                                                                                                                                ",
"                                                                                                                                ",
"                                                      - + . . . . -   - -                                                       ",
"                                                    - S 0.e.e.e.e.e.e.0.S -                                                     ",
"                                                  - + 0.e.e.e.e.e.e.e.e.0.+ -                                                   ",
"                                              - 4 2.. e.e.e.e.e.e.e.e.e.e.. =.4 -                                               ",
"                                          - = 3.G.G.. - . . . . . . . . - . G.G.3.= -                                           ",
"                              - + + -   - V Z.G.G.G.. l x x x x x x x x l . G.G.G.Z.N -                                         ",
"                            $ S 6.6.S + V G.G.G.G.G.. 7 x x x x x x x x 7 + G.G.G.G.G.R -                                       ",
"                          - S ` & & ` y = G.G.G.G.G.v . . . . . . . . . + v G.G.G.G.G.G.Y -                                     ",
"                          $ 6.& ) _ = 1.. G.G.G.G.G.G.G.G.G.G.G.G.G.G.G.G.G.G.G.G.G.G.G.A.e                                     ",
"                          + 7.& ) ) = ,.+ G.G.m.! r = + . . . . . . . . . D 4.Q b.G.G.G.G.b.$                                   ",
"                          - D ` = = -.w = A.T - k F / ;.;.;.;.;.;.;.;.;.;.;./ k - Y Z.G.G.G.E -                                 ",
"                            + y <.,.w + 9.9 0 ( / B 2 & + . . . . . . + & 4 B / ( 0 9 N.G.G.N.. - -                             ",
"                          - 9 $ . . = 9.9 b ' b & U y.j.v.v.v.v.v.v.v.c.s.X.P & b ] b 9 Z.G.G.- n w -                           ",
"                          w w.1 n G.G.T 0 ;.m M k.v.v.v.v.v.v.v.v.v.v.v.v.v.x.i.i 2 ( 0 T G.G.v 4 w.w $                         ",
"                        - ,.e.$ =.G.m.- / m c.v.v.v.v.v.v.v.v.v.v.v.v.v.v.v.v.x.g.I 2 / - m.G.*.$ e.,.-                         ",
"                        + 0.e.. r.G.! k b K v.v.v.v.v.v.v.v.v.v.v.v.v.v.v.v.v.v.l.g.i b u ~ G.9.+ e.0..                         ",
"                        . e.e.. C.G.r Z & k.v.v.f.| | f.v.v.v.v.v.v.v.v.f.| | f.x.g.i.& Z r G.B.+ e.e..                         ",
"                        - e.e.. C.G.= k U v.v.v. .f.f. .v.v.v.v.v.v.v.v. .f.f. .v.g.g.L b - G.Z.+ e.e..                         ",
"                        w.e.e.+ d.G.+ 2 y.v.v.v.v.v.v.v.v.v.v.v.v.v.v.v.v.v.v.v.v.g.g...4 + G.C.+ e.e..                         ",
"                        - e.e.$ =.G.. $ k.v.v.v.[ . 3 v.v.v.v.v.v.v.v.v.v.3 . [ v.g.g.u.= . G.F.e.e.e..                         ",
"                        . e.e.1 n G.+ + v.v.v.v.v.. . v.v.v.v.v.v.v.v.v.v.. . v.v.g.g.p.@ + G.n 9 e.e..                         ",
"                        . 0.e.C - G.= $ k.v.v.v.v.t t v.v.v.v.v.v.v.v.v.v.t t v.v.g.g.i.& = G.$ S e.0..                         ",
"                        - >.e.7.. 8.r , y.v.v.v.v.v.v.v.v.v.v.v.v.v.v.v.v.v.v.v.v.g.g..., r 8.. 7.e.:.-                         ",
"                        $ 9 w.e.4 9 ! < U v.v.v.v.v.v.v.v.v.v.v.v.v.v.v.v.v.v.v.c.g.g.L 2 ! 4 4 e.w.9                           ",
"                          - 9 :.,.+ 4.- & k.v.v.v.v.v.v.v.v.v.v.v.v.v.v.v.v.v.v.z.g.i.- - =.. 1.:.9 $                           ",
"                            $ - . . = T : K v.v.v.v.v.v.v.5 ^ j.j.^ 5 v.v.v.v.v.h.g.i : T = . . $                               ",
"                                    - C 9 = W v.v.v.v.v.v.a.M - - M a.v.v.v.v.z.g.I - 9 C -                                     ",
"                                      - Y 9 - M k.v.v.v.v.v.v.v.v.v.v.v.v.v.z.i.i - 9 Y -                                       ",
"                                        - n Y $ $ p { j.v.v.v.v.v.v.v.c.a.} i @ $ E n -                                         ",
"                                          - = =.R 1 @ . . . . . . . . . . @ 1 Q =.= -                                           ",
"                                              - 1 *.N.G.G.G.G.G.G.G.G.G.G.N.*.1 -                                               ",
"                                                  - $ 1 e + . . . . + e 1 + -                                                   ",
"                                                        + G J J J J G +                                                         ",
"                                                      $ + H J J J J H + -                                                       ",
"                                                  = - T ~ ; . . . . ; ! R - ,                                                   ",
"                                                - Y S.G.G.G.G.G.G.G.G.G.G.Z.=.M.                                                ",
"                                              - 2.G.G.G.G.G.G.G.G.G.G.G.G.G.G.r.$                                               ",
"                                            = ~ G.G.G.G.G.G.G.G.G.G.G.G.G.G.G.V.S -                                             ",
"                                            9 D.G.G.G.G.G.G.G.G.G.G.G.G.G.G.G.n.w.1                                             ",
"                                          , 3.G.G.G.b.8 + . . . . . . + 8 b.G.t.e.` -                                           ",
"                                          . f m.G.G.w z #.$.$.$.$.$.$.#.z w A.e.5.q +                                           ",
"                                          6 h c G.G.+ #.$.$.$.$.$.$.$.$.#.+ n.e.q j X                                           ",
"                                          s +.$ G.G.. $.A - . . . . * A $.. e.e.$ +.o .                                         ",
"                                        , j h c G.G.. $.* %.&.&.&.&.%.* $.. e.e.q h s #                                         ",
"                                        - + c m.G.G.. $.* %.g &.&.g %.* $.. e.e.5.q + $                                         ",
"                                        - m.G.G.G.G., $.A - O . . O * A $.. e.e.e.e.6.-                                         ",
"                                        d o.@.G.G.G.q.$.$.$.a $.$.a $.$.$.. e.e.e.O.o.d                                         ",
"                                        9 G.G.G.G.G., $.$.$.$.$.$.$.$.$.$.. e.e.e.e.e.1                                         ",
"                                        V G.G.G.G.G.. $.$.$.$.$.$.$.$.$.$.. e.e.e.e.e.v                                         ",
"                                      $ ~ G.G.G.G.G.. $.$.O.o.o.o.o.O.$.$.. e.e.e.e.e.S -                                       ",
"                                      - 3.G.G.G.G.G.. $.$.$.$.$.$.$.$.$.$.. e.e.e.e.e.` -                                       ",
"                                      - d.G.G.G.G.G.. $.$.$.$.$.$.$.$.$.$.. e.e.e.e.e.<.-                                       ",
"                                      - A.G.A.Z.C.n.> $.$.$.$.$.$.$.$.$.$.> e.e.e.e.e.0.-                                       ",
"                                                                                                                                ",
"                                                                                                                                ",
"                                                                                                                                ",
"                                                                                                                                "
};
